<?xml version="1.0" encoding="utf-8"?>
<!-- Generator: Adobe Illustrator 24.3.0, SVG Export Plug-In . SVG Version: 6.00 Build 0)  -->
<svg version="1.1" id="Layer_1" xmlns="http://www.w3.org/2000/svg" xmlns:xlink="http://www.w3.org/1999/xlink" x="0px" y="0px"
	 viewBox="0 0 606.8 692.4" style="enable-background:new 0 0 606.8 692.4;" xml:space="preserve">
<style type="text/css">
	.st0{fill:#CCACAC;}
	.st1{fill:#73003E;}
	.st2{fill:#FABC01;}
	.st3{fill:#0FCE7C;}
	.st4{fill:#5CBFAA;}
	.st5{fill:#5A5A5A;}
	.st6{fill:none;stroke:#0FCE7C;stroke-width:14;stroke-miterlimit:10;}
	.st7{fill:none;}
	.st8{fill:#15003E;}
</style>
<polygon class="st0" points="536.8,481.1 536.8,211.7 303.4,76.9 70,211.7 70,481.1 303.4,615.9 "/>
<path class="st1" d="M303.4,3.2L6.4,174.7v343l297,171.5l297-171.5v-343L303.4,3.2z M549.2,488.1L303.5,630L57.7,488.1V204.4
	l245.8-142l245.7,142V488.1z"/>
<path class="st2" d="M303.4,62.4L57.6,204.3v283.8L303.4,630l245.7-141.9V204.3L303.4,62.4z M536.8,481L303.4,615.7L70,481V211.5
	L303.4,76.7l233.4,134.8V481z"/>
<path d="M276.6,242.8c0.1-1.6,0.2-3,0.2-4.4c0-5,2.5-7.1,7.4-7c4.8,0.1,9.6,0,15.3,0c0-5.1,0.2-9.9-0.1-14.6
	c-0.1-1.2-1.6-2.5-2.8-3.4c-4.4-3.2-6.2-7.4-4.8-12.6c1.3-4.8,5.8-8.1,10.8-8c5.2,0.2,8.7,2.8,10.4,7.7c1.6,4.8-0.3,9.2-4.4,12.8
	c-1.6,1.3-2.8,3.8-3,5.9c-0.5,3.7-0.1,7.5-0.1,12.2c4.7,0,9.1,0,13.4,0c8,0,8.8,0.8,9.2,8.9c0,0.9,0.2,1.7,0.4,2.8
	c2.9,0.7,5.7,1.2,8.4,2c29.1,8.7,47.1,27.8,54,57.4c0.6,2.7,1.3,4.2,4.3,4.9c5.9,1.4,8.6,5.2,8.7,11.2c0.1,6.3,0.1,12.5,0,18.8
	c-0.1,6.1-2.8,9.2-8.6,11.5c-1.7,0.7-3.5,2.7-4,4.5c-5.2,20.7-22.2,34.5-43.5,34.5c-30.2,0.1-60.4,0.3-90.6-0.1
	c-19.1-0.2-32.9-9.5-41-26.8c-0.8-1.6-1.5-3.3-1.6-5.1c-0.3-4.4-1.1-7.3-6.7-8.3c-2.6-0.4-6-5.4-6.4-8.7c-0.8-7.4-0.4-15,0.3-22.4
	c0.4-4.7,3.6-7.9,8.3-9.6c1.5-0.5,3.4-2,3.8-3.4c7.6-33.3,28.2-53.2,61.5-60.3C275.5,243.3,275.8,243.1,276.6,242.8z M302.3,381.8
	c15.4,0,30.7,0.2,46.1,0c19.5-0.3,35.5-14.4,37.2-33.8c1-11.5,0.7-23.1,0.2-34.7c-1.4-32.2-25.9-59.5-57.8-63.5
	c-13.9-1.7-28.2-1.1-42.3-1c-31.5,0.3-59.4,23-65.2,54.1c-2.2,11.6-1.5,23.8-2.4,35.7c-2.1,27.2,19.9,44.9,43,43.4
	C274.8,381.1,288.6,381.8,302.3,381.8z M302.2,242.5c5.3,0,10.7,0.2,16-0.1c1.3-0.1,2.4-1.6,3.6-2.4c-1.1-0.8-2.2-2.3-3.3-2.3
	c-10.9-0.2-21.7-0.2-32.6,0c-1,0-2.1,1.6-3.1,2.5c1.1,0.8,2.2,2.2,3.3,2.2C291.5,242.6,296.9,242.5,302.2,242.5z M212.4,343
	c0-10.2,0-19.9,0-29.7c-5.4,1.8-5.5,1.8-5.4,19.6C207.1,337,206,341.7,212.4,343z M392.4,342.5c0.7,0.2,1.4,0.3,2.1,0.5
	c6.4-6.8,2-15.7,3.1-23.5c0.5-3.3-0.9-5.9-5.2-6.2C392.4,323.1,392.4,332.8,392.4,342.5z M309.5,203.9c-3.4-2.3-5.5-4.9-7-4.6
	c-1.9,0.4-4.4,2.9-4.7,4.8c-0.2,1.3,2.8,4.4,4.5,4.4C304.2,208.6,306.2,206.2,309.5,203.9z"/>
<path d="M305.7,410.5c11.4,0,22.8-0.1,34.1,0c20.5,0.2,34.5,14.2,34.3,34.7c-0.1,14.5,0.8,29.3-1.3,43.5
	c-4.6,31.2-32.2,54.1-63.8,54.7c-34.2,0.6-60.3-16.3-69.6-46c-2.1-6.8-2.9-14.2-3.2-21.4c-0.5-10.4-0.2-20.9-0.1-31.3
	c0.1-19.7,14-33.9,33.8-34.1C281.8,410.4,293.7,410.5,305.7,410.5z M305.6,416.9c-11.4,0-22.8,0-34.2,0c-17.9,0-29,11-29.2,28.9
	c-0.1,9-0.3,17.9,0.1,26.9c0.3,6.9,0.7,13.9,2.4,20.5c7.7,28.2,32,44.5,64.4,43.8c30.9-0.7,56.8-25.2,58.4-56.1
	c0.7-12.3,0.5-24.6,0.2-36.9c-0.4-16.3-11.7-26.9-28.1-27C328.4,416.9,317,416.9,305.6,416.9z"/>
<path d="M302.7,323.5c-12.5,0-25,0.1-37.5,0c-13.5-0.1-24.2-10.2-24.2-22.7c-0.1-13.2,10.2-23,24.3-23c25.2-0.1,50.4-0.1,75.6,0
	c10.3,0.1,18.6,6.1,21.8,15.2c3.2,9.1,0.7,19.6-7.2,25c-4.5,3-10.4,4.9-15.8,5.3C327.3,324.1,315,323.5,302.7,323.5z M302.4,283.9
	c-12.3,0-24.7,0-37,0c-10.8,0-18.4,7-18.3,16.7c0.1,9.9,7.4,16.7,18.3,16.7c24.7,0,49.3,0,74,0c10.8,0,18.4-7,18.4-16.7
	c0-9.7-7.5-16.6-18.4-16.7C327,283.9,314.7,283.9,302.4,283.9z"/>
<path d="M268.7,286.8c7.8-0.1,14,5.9,14,13.7c0,7.6-5.7,13.6-13.3,13.8c-7.8,0.2-14.2-5.7-14.4-13.4
	C254.8,293.3,260.9,287,268.7,286.8z M276.5,300.6c0-4.3-3.6-7.8-7.8-7.7c-4,0.1-7.4,3.5-7.5,7.5c-0.1,4.2,3.4,7.9,7.6,8
	C273,308.4,276.5,304.9,276.5,300.6z"/>
<path d="M346.1,301.1c0,7.5-6,13.5-13.6,13.5c-7.6,0-13.5-6-13.4-13.6c0.1-7.4,5.8-13.2,13.2-13.3
	C340,287.6,346.1,293.6,346.1,301.1z M340.2,301.4c0.1-4-3.4-7.7-7.4-7.8c-3.9-0.1-7.4,3.2-7.6,7.1c-0.3,4.1,3,7.8,7.1,8.1
	C336.3,309,340,305.5,340.2,301.4z"/>
<path class="st3" d="M276.5,300.6c0,4.3-3.5,7.9-7.7,7.8c-4.2,0-7.7-3.8-7.6-8c0.1-4,3.5-7.4,7.5-7.5
	C272.9,292.8,276.5,296.3,276.5,300.6z"/>
<path class="st3" d="M340.3,301.1c0,4.3-3.5,7.9-7.7,7.8c-4.2,0-7.7-3.8-7.6-8c0.1-4,3.5-7.4,7.5-7.5
	C336.7,293.3,340.3,296.9,340.3,301.1z"/>
<g>
	<path class="st4" d="M179.8,314.2c3.4-3.5,5.1-6.4,7.9-7.9c6.2-3.4,6.4-7.3,4.9-13.3c-6.7-27.6-0.9-53.4,17.9-76.7
		c1.7-2.1,5.1-3.4,8-4.6c5-2.2,11.1-3.1,15.2-6.2c41-30.5,98.4-30.2,139,0.8c3.5,2.6,8.6,3.6,12.9,5.5c3.3,1.5,7.6,2.5,9.5,4.9
		c18.8,23.5,24.5,49.4,17.5,77.4c-0.7,2.6-1.9,6.3-0.5,7.8c3.8,4.2,8.9,7.5,13.7,11.3c0.9-2,1.8-3.6,2.4-5.2
		c12.8-35.9,7.3-69.4-16.8-100.7c-2.3-3-5.3-6.5-5.3-9.8c0-8.1-3.9-13.7-10.7-18.8c-53.5-40.5-136.1-39.5-188.3,2.4
		c-3,2.5-7.1,6.2-6.8,9.1c0.9,10-7.4,15.9-11.5,23.6c-5.1,9.5-10.7,19-14,29.1C167.3,266.6,168.9,290,179.8,314.2z"/>
	<path class="st5" d="M214.4,323c-0.1,0-0.1,0-0.2,0c0-10.3,0.4-20.6-0.1-30.9c-0.4-8.8-7.7-14.8-17.1-15
		c-9.5-0.2-17.7,5.6-17.9,14.2c-0.6,20.6-0.8,41.2-0.3,61.8c0.2,9.7,8.5,15.7,18.6,15.3c9.8-0.3,16.8-7.1,17-16.8
		C214.5,342.1,214.4,332.5,214.4,323z"/>
	<path class="st5" d="M428.2,322.8C428.2,322.8,428.2,322.8,428.2,322.8c0-9.8,0.1-19.6-0.1-29.3c-0.2-10-7.5-16.5-18.1-16.4
		c-10,0.1-17.4,6.6-17.5,16.2c-0.2,19.6-0.2,39.1-0.1,58.7c0.1,9.5,7.4,16.2,17.3,16.4c10.5,0.2,18-6.2,18.3-16.2
		C428.4,342.4,428.2,332.6,428.2,322.8z"/>
	<path class="st5" d="M431.3,314.2c0,11.5,0,23,0,34.4c7.7,0.6,14.7-8.4,14.5-17.5C445.6,321.7,439.2,314.2,431.3,314.2z"/>
	<path class="st5" d="M161,331.2c-0.2,9,6.8,18,14.5,17.5c0-11.5,0-23,0-34.4C167.6,314.2,161.2,321.7,161,331.2z"/>
</g>
<g>
	<path class="st6" d="M327.3,457.4c16,12.7,11.7,24.6,2.4,36.3"/>
	<line class="st7" x1="329.1" y1="466.5" x2="329.1" y2="466.5"/>
	<path class="st8" d="M319.9,482.9c7.5,5.6,14.6,11,21.7,16.4c0.7,0.6,1.5,1.6,1.5,2.4c0.1,5.9,0.1,11.7,0.1,17.8
		c-1.1,0.1-2,0.1-2.9,0.1c-10.3,0-20.6,0-30.9,0c-22.8-0.1-41.7-17.1-44.2-39.7c-2-18.5,7.2-35.8,23.8-44.5c1.6-0.8,2.2-1.7,2.1-3.5
		c-0.2-2.5-0.1-4.9,0-7.4c0-1.9,0.6-3.5,2.7-3.6c2.3-0.1,3.1,1.4,3,3.5c0,2.4,0,4.9,0,7.5c2.9-0.6,5.4-1.1,8.2-1.6
		c0-2.2,0-4.3,0-6.4c0-1.8,0.9-3,2.7-3c1.9,0,3,1.2,3.1,3c0.1,2.1,0,4.1,0,6.3c13.2,0.8,24,5.9,32.5,15.8
		c-3.4,3.5-6.7,7.1-10.2,10.5c-3.4,3.3-7,6.5-10.7,9.6c-1.2,1.1-1.8,1.8-1,3.5C323.3,474.1,322.9,478.5,319.9,482.9z M335.1,511.7
		c1-4.7,0.4-8.1-4-10.8c-4.7-2.9-9-6.5-13.4-10c-2.6-2.1-5.1-3.2-8.6-3.1c-7.4,0.3-13.2-6.1-12.9-13.5c0.3-7.1,7-13.7,14-12.4
		c4.2,0.8,6.2-1.1,8.6-3.4c0.8-0.8,1.7-1.5,2.5-2.3c3.6-3.3,7.1-6.7,10.8-10.2c-10.6-7.8-21.8-9.7-34-6.1c-0.7,0.2-1.4,1.6-1.5,2.4
		c-0.2,4.2,0,8.3-0.1,12.5c0,1.1-0.6,2.5-1.4,3.1c-1.9,1.3-4.1-0.1-4.2-2.7c-0.1-3.8,0-7.7,0-11.9c-0.9,0.5-1.3,0.7-1.8,1
		c-9.1,6.1-14.2,14.5-16.1,25.2c-3.1,17.8,9.4,37,27,40.9c3.4,0.8,6.9,1.1,10.4,1.2C318.7,511.9,327,511.7,335.1,511.7z
		 M309.4,480.3c2.7,0.1,5.3-2.5,5.3-5.2c0-2.7-2.4-5.3-5.1-5.4c-2.7-0.1-5.3,2.3-5.5,5C304,477.5,306.5,480.2,309.4,480.3z"/>
</g>
<g>
	<path d="M326.6,343c-2.1-2.8-4.1-0.3-6.3,0.8c-4.7,2.2-9.6,4.7-14.6,5.6c-0.6,0.1-1.2,0.2-1.9,0.2v6.1c8,0,14.9-2.4,20.6-7.7
		C325.6,346.8,327.1,343.7,326.6,343z"/>
	<path d="M281.8,343c2.1-2.8,4.1-0.3,6.3,0.8c4.7,2.2,9.6,4.7,14.6,5.6c0.6,0.1,1.2,0.2,1.9,0.2v6.1c-8,0-14.9-2.4-20.6-7.7
		C282.7,346.8,281.2,343.7,281.8,343z"/>
</g>
<path class="st3" d="M309.5,204c-3.3,2.3-5.2,4.6-7,4.6c-1.6,0-4.6-3.1-4.4-4.3c0.3-1.9,2.7-4.3,4.6-4.7
	C304.2,199.3,306.2,201.7,309.5,204z"/>
<g>
	<path class="st8" d="M232.2,634.6c-1.8-7.5-3.6-14.8-5.5-22.3c-2.6,4.5-5.1,8.8-7.6,13.2c-1-0.6-1.9-1.1-2.8-1.6
		c3.8-6.7,7.7-13.3,11.6-20.1c1.8,7.5,3.6,14.9,5.5,22.4c2.6-4.5,5.1-8.8,7.6-13.2c1,0.6,1.9,1.1,2.8,1.6
		C239.9,621.2,236.1,627.8,232.2,634.6z"/>
	<path class="st8" d="M114.9,544.8c-1,0.2-2,0.5-3,0.7c-0.2-0.8-0.4-1.6-0.7-2.3c-2.1-5.8-9.6-7.1-13.6-2.4c-3.4,4-2.7,9.5,1.6,12.4
		c3,2.1,7.5,0.8,8.6-1.5c-1.5-0.9-3-1.7-4.6-2.6c0.5-0.9,1-1.8,1.5-2.7c1.3,0.8,2.6,1.5,3.9,2.2c1.3,0.7,2.5,1.5,3.8,2.2
		c-2.5,6.1-9,8.3-14.4,5.3c-4.2-2.3-6.5-7.1-5.7-11.7c0.9-4.8,4.7-8.7,9.5-9.4C108.2,534.1,114.1,538.4,114.9,544.8z"/>
	<path class="st8" d="M165.5,588.9c-0.5,0.9-1,1.6-1.4,2.4c-0.4,0.8-0.9,0.9-1.7,0.8c-7-0.8-11.7-7.1-10.2-13.8
		c1-4.4,4.7-7.9,9.3-8.8c4.3-0.8,8.9,1.3,11.4,5c0.4,0.6,0.4,1,0,1.5c-0.5,0.7-0.9,1.5-1.5,2.5c-1.3-3-3.2-5.2-6.3-5.9
		c-1.8-0.4-3.6-0.1-5.2,0.7c-3.5,1.7-5.4,5.8-4.5,9.5C156.5,587.1,159.6,588.9,165.5,588.9z"/>
	<path class="st8" d="M145.6,561.4c-3.2,5.5-6.2,10.8-9.4,16.2c-1-0.6-1.8-1.1-2.8-1.6c3.1-5.4,6.2-10.7,9.4-16.2
		c-1.5-0.9-2.9-1.7-4.3-2.5c0.5-0.9,1-1.7,1.5-2.6c3.8,2.2,7.6,4.4,11.5,6.6c-0.5,0.8-0.9,1.6-1.5,2.6
		C148.6,563.1,147.1,562.3,145.6,561.4z"/>
	<path class="st8" d="M128,547.8c0.9,0.5,1.8,1,2.7,1.6c-3.6,6.3-7.3,12.6-10.9,18.9c-0.9-0.5-1.7-1-2.7-1.6
		C120.8,560.4,124.4,554.1,128,547.8z"/>
	<path class="st8" d="M205,617.4c-0.9-0.5-1.8-1-2.7-1.5c3.6-6.3,7.2-12.5,10.9-18.9c0.9,0.5,1.7,1,2.7,1.5
		C212.2,604.8,208.6,611.1,205,617.4z"/>
	<g>
		<path class="st3" d="M189.8,606.3c-2.3,0-4.6-0.6-6.7-1.8c-6.4-3.7-8.6-12-4.9-18.4s12-8.6,18.4-4.9c6.4,3.7,8.6,12,4.9,18.4
			C199,603.9,194.4,606.3,189.8,606.3z M189.8,583.4c-3.3,0-6.5,1.7-8.2,4.7c-2.6,4.5-1.1,10.3,3.5,12.9c4.5,2.6,10.3,1.1,12.9-3.5
			s1.1-10.3-3.5-12.9C193,583.8,191.4,583.4,189.8,583.4z"/>
	</g>
</g>
</svg>
