<?xml version="1.0" encoding="utf-8"?>
<!-- Generator: Adobe Illustrator 24.3.0, SVG Export Plug-In . SVG Version: 6.00 Build 0)  -->
<svg version="1.1" id="Layer_1" xmlns="http://www.w3.org/2000/svg" xmlns:xlink="http://www.w3.org/1999/xlink" x="0px" y="0px"
	 viewBox="0 0 608.1 700.7" style="enable-background:new 0 0 608.1 700.7;" xml:space="preserve">
<style type="text/css">
	.st0{fill:#606060;}
	.st1{fill:#C65828;}
	.st2{fill:#FFFFFF;stroke:#0FCE7C;stroke-width:4;stroke-miterlimit:10;}
	.st3{fill:#D3C166;}
	.st4{fill:#15003E;}
	.st5{fill:none;stroke:#606060;stroke-miterlimit:10;}
	.st6{stroke:#FFFFFF;stroke-miterlimit:10;}
	.st7{fill:#AC8200;}
	.st8{fill:#E5C420;}
	.st9{fill:#E4AC00;}
	.st10{fill:#EDC624;}
	.st11{fill:#0E6935;}
	.st12{fill:#5E4F44;}
	.st13{fill:#D3BEA0;}
	.st14{fill:#9C897A;}
	.st15{fill:#F2CC1A;}
	.st16{fill:#EDC31A;}
	.st17{fill:#FFB400;}
	.st18{fill:#FFFFFF;}
	.st19{fill:none;stroke:#FFFFFF;stroke-linecap:round;stroke-miterlimit:10;}
	.st20{fill:#AAA9A5;}
</style>
<g>
	<line class="st0" x1="358.7" y1="536.2" x2="448.9" y2="536.2"/>
	<path class="st1" d="M304.9,6.4L7.9,177.9v343l297,171.5l297-171.5v-343L304.9,6.4z M550.7,491.3L305,633.2L59.2,491.3V207.6
		L305,65.6l245.7,142V491.3z"/>
	<path class="st2" d="M304.9,65.6L59.1,207.5v283.8l245.8,141.9l245.7-141.9V207.5L304.9,65.6z M538.3,484.2L304.9,619L71.5,484.2
		V214.7L304.9,80l233.4,134.8V484.2z"/>
	<g>
		<polygon class="st3" points="538.3,484.4 538.3,214.9 304.9,80.1 71.5,214.9 71.5,484.4 304.9,619.1 		"/>
		<g>
			<path class="st4" d="M526.2,550.4c-7.4-2.2-14.6-4.2-22-6.4c2.6,4.5,5.1,8.8,7.6,13.2c-1,0.6-1.9,1.1-2.8,1.6
				c-3.8-6.7-7.7-13.3-11.6-20.1c7.5,2.2,14.7,4.3,22.2,6.5c-2.6-4.5-5.1-8.8-7.6-13.2c1-0.6,1.9-1.1,2.8-1.6
				C518.4,537,522.2,543.5,526.2,550.4z"/>
			<path class="st4" d="M389.7,607.1c-0.3,1-0.6,2-0.9,2.9c-0.8-0.2-1.5-0.4-2.3-0.6c-6-1-10.9,4.8-8.9,10.6
				c1.7,4.9,6.9,7.1,11.5,4.9c3.3-1.6,4.4-6.1,3-8.2c-1.5,0.9-3,1.7-4.6,2.6c-0.5-0.9-1-1.8-1.5-2.7c1.3-0.8,2.6-1.5,3.9-2.2
				c1.3-0.7,2.5-1.5,3.8-2.2c4,5.2,2.6,12-2.6,15.1c-4.1,2.5-9.4,2.1-13-0.9c-3.7-3.2-5.1-8.4-3.4-12.9
				C377.1,607.5,383.8,604.6,389.7,607.1z"/>
			<path class="st4" d="M453.2,585.3c0.5,0.9,0.9,1.7,1.4,2.4c0.6,0.7,0.4,1.2-0.1,1.9c-4.2,5.7-12,6.6-17,1.9
				c-3.4-3.1-4.5-8-2.9-12.5c1.5-4.1,5.6-7.1,10-7.4c0.7,0,1.1,0.1,1.4,0.7c0.4,0.8,0.9,1.5,1.4,2.5c-3.3-0.4-6.1,0.1-8.3,2.5
				c-1.3,1.4-1.9,3.1-2,4.9c-0.2,3.9,2.3,7.6,6,8.6C447.2,592.1,450.3,590.4,453.2,585.3z"/>
			<path class="st4" d="M419.5,588.7c3.2,5.5,6.2,10.8,9.4,16.2c-1,0.6-1.8,1.1-2.8,1.6c-3.1-5.4-6.2-10.7-9.4-16.2
				c-1.5,0.9-2.9,1.7-4.3,2.5c-0.5-0.9-1-1.7-1.5-2.6c3.8-2.2,7.6-4.4,11.5-6.6c0.5,0.8,0.9,1.6,1.5,2.6
				C422.4,587,421,587.9,419.5,588.7z"/>
			<path class="st4" d="M398.9,597.2c0.9-0.5,1.8-1,2.7-1.6c3.6,6.3,7.3,12.6,10.9,18.9c-0.9,0.5-1.7,1-2.7,1.6
				C406.2,609.8,402.6,603.5,398.9,597.2z"/>
			<path class="st4" d="M497.7,565.3c-0.9,0.5-1.8,1-2.7,1.5c-3.6-6.3-7.2-12.5-10.9-18.9c0.9-0.5,1.7-1,2.7-1.5
				C490.4,552.7,494,559,497.7,565.3z"/>
			<circle class="st2" cx="468.4" cy="564.8" r="11.5"/>
		</g>
		<line class="st5" x1="164.1" y1="536.2" x2="267.9" y2="536.2"/>
		<line class="st6" x1="267.9" y1="536.2" x2="358.2" y2="536.2"/>
		<line class="st5" x1="178.1" y1="536.2" x2="448.9" y2="536.2"/>
		<g>
			<g>
				<path class="st7" d="M337.5,533.8c10.9-3.7,16.9-12.5,16.5-23.5c-0.1,5.6-3.1,11.2-8.4,15.1c-5.4,3.9-11.4,5.7-18.1,5.6
					c-9.8,0-18.1-3-23.8-11.2c-1.9-2.8-2.9-5.9-3-9c0,0.9,0,1.8,0,2.8c0,5.7,3.1,11.2,7.1,14.9C316.7,536.8,328.7,536,337.5,533.8z"
					/>
				<path class="st8" d="M300.6,510.9c0-0.3,0-0.6,0-0.9C300.6,510.3,300.6,510.6,300.6,510.9z"/>
				<path class="st8" d="M353.6,506.4c0.2,1.3,0.4,2.7,0.4,4C354.1,509,353.9,507.7,353.6,506.4z"/>
				<path class="st8" d="M322.2,530.5c6.6,0.9,13,0,18.9-3.1c9.1-4.8,12.8-12,11.7-23.6c-1.3-3.3-3.8-6.4-7.5-8.8
					c-11.6-7.7-28.5-6.8-38.8,2.3c-2.7,2.4-4.5,5.4-5.4,8.5C300.7,519.2,308.8,528.7,322.2,530.5z"/>
				<path class="st8" d="M327.5,531.1c6.7,0.1,12.8-1.7,18.1-5.6c5.4-3.9,8.3-9.5,8.4-15.1c0-1.3-0.2-2.6-0.4-4
					c-0.2-0.8-0.4-1.7-0.8-2.5c1.1,11.6-2.6,18.8-11.7,23.6c-6,3.1-12.3,4-18.9,3.1c-13.5-1.8-21.5-11.3-21-24.6
					c-0.4,1.3-0.6,2.7-0.6,4.1c0,0.3,0,0.6,0,0.9c0.1,3.1,1.1,6.2,3,9C309.3,528,317.7,531,327.5,531.1z"/>
			</g>
			<path class="st9" d="M327.3,526.4c5.3,0.1,10.1-1.3,14.3-4.4c8.5-6.1,9.3-17.4-0.2-23.6c-9.2-5.9-22.5-5.3-30.6,1.8
				c-5.2,4.5-6.3,11.9-2.3,17.4C313,524.1,319.6,526.4,327.3,526.4z"/>
			<path class="st7" d="M316.4,510.3c-1-0.5-2.5-0.8-2.9-1.6c-0.7-1.5,0.1-2.5,1.9-2.5c1.4,0,2.2-0.4,2.1-2c0-0.6,0.5-1.8,0.7-1.7
				c1,0.1,2.6,0.2,2.9,0.8c0.8,1.5,1.8,1.4,3.1,1.4c2.4,0,4.8,0,7.2-0.1c0.7,0,1.2-0.9,1.9-1.3c0.8-0.5,1.6-1.1,2.4-1.2
				c0.4,0,1.1,1.1,1.3,1.7c0.2,1.1,0.1,2.1,1.6,2c1.3,0,3,0,2.6,1.9c-0.2,0.9-1.5,1.5-2.3,2.3c-0.1-0.1-0.3-0.3-0.4-0.4
				c0.4,0,1-0.2,1.3,0c0.6,0.4,1.4,0.9,1.6,1.5c0.3,1.1-0.4,1.9-1.6,1.7c-1.7-0.2-2.5,0.5-3.1,2.2c-1.2,3.3-4,3.9-8,1.9
				c-3.7,4.1-8.6,3.1-10.6-1.9c-0.3-0.7-1.2-1.4-2-1.6c-1.3-0.3-2.7-0.1-2.6-2.1c0-2,1.5-1.6,2.7-1.7c0.2,0,0.4-0.1,0.6-0.1
				C316.6,510.1,316.5,510.2,316.4,510.3z M314.3,507.6l0.1,0.6c0.9,0.1,1.8,0,2.6,0.3c0.5,0.1,0.8,0.8,1.2,1.2
				c-0.4,0.3-0.8,0.8-1.2,0.9c-0.8,0.2-1.7,0.2-2.6,0.3l-0.1,0.7c0.5,0.2,0.9,0.5,1.4,0.5c1.9-0.2,2.9,0.4,3.2,2.5
				c0.3,2.1,1.9,3.2,4,3.4c2.4,0.3,4.5-0.2,5.5-2.8c3.8,2.8,6.3,2,8.1-2.1c0.2-0.6,1.3-0.9,2-1.2c0.7-0.3,1.4-0.4,2.1-0.5
				c0-0.4,0-0.3-0.1-0.8c-0.8-0.1-1.7,0-2.5-0.2c-0.5-0.1-0.9-0.7-1.3-1c0.4-0.4,0.8-0.9,1.3-1.1c0.8-0.3,1.7-0.3,2.8-0.4
				c-0.4-0.5-0.6-0.8-0.7-0.8c-2.4,0.1-4.1-0.4-3.7-3.4c0-0.2-0.5-0.6-0.7-0.6c-0.4,0-1,0.3-1,0.5c-0.3,2.2-2,2-3.5,2
				c-2.6,0.1-5.3,0.1-7.9,0.1c-1.1,0-2.2-0.1-2.5-1.5c-0.1-0.4-0.8-0.7-1.3-0.8c-0.2,0-0.8,0.6-0.8,0.8c0.4,2.9-1.4,3.2-3.5,3.1
				C314.7,507.2,314.5,507.5,314.3,507.6z"/>
			<path class="st10" d="M314.3,507.6c0.2-0.1,0.4-0.4,0.7-0.4c2.2,0.1,4-0.2,3.5-3.1c0-0.2,0.6-0.8,0.8-0.8
				c0.5,0.1,1.2,0.4,1.3,0.8c0.3,1.5,1.4,1.6,2.5,1.5c2.6,0,5.3,0,7.9-0.1c1.5,0,3.2,0.2,3.5-2c0-0.2,0.7-0.5,1-0.5
				c0.3,0,0.8,0.4,0.7,0.6c-0.4,3,1.3,3.5,3.7,3.4c0.1,0,0.3,0.3,0.7,0.8c-1.1,0.2-2,0.2-2.8,0.4c-0.5,0.2-0.9,0.7-1.3,1.1
				c0.4,0.3,0.8,0.9,1.3,1c0.8,0.2,1.7,0.1,2.5,0.2c0,0.4,0,0.3,0.1,0.8c-0.7,0.2-1.4,0.3-2.1,0.5c-0.7,0.3-1.7,0.6-2,1.2
				c-1.8,4.2-4.3,5-8.1,2.1c-0.9,2.6-3,3.1-5.5,2.8c-2.1-0.2-3.7-1.3-4-3.4c-0.3-2.1-1.2-2.7-3.2-2.5c-0.4,0-0.9-0.3-1.4-0.5
				l0.1-0.7c0.9-0.1,1.8-0.1,2.6-0.3c0.4-0.1,0.8-0.6,1.2-0.9c-0.4-0.4-0.7-1-1.2-1.2c-0.8-0.2-1.8-0.2-2.6-0.3L314.3,507.6z
				 M320.7,510.3c0.1,2.9,1.2,4.3,3.1,4.3c1.9-0.1,3-1.7,3-4.3c0-2.8-2.2-1.6-3.5-1.8C322,508.3,320.3,508.2,320.7,510.3z
				 M334.2,510c0.2-1.9-1.3-1.7-2.5-1.6c-1.2,0.1-3.2-0.9-3.1,1.7c0.1,2.1,1.1,3.5,2.8,3.4C333.2,513.5,334.2,512.2,334.2,510z"/>
		</g>
		<path class="st11" d="M309.7,232.1c-0.6-0.5-1.3-0.8-1.7-0.4c-3.8,4.2-7.6,8.6-11.4,12.9c-0.4,0.5-0.8,1-1.4,1.7
			c-0.3-6.9-2.5-11.1-6.4-14.6c0.2,3.8,0.2,6.8,0.6,9.7c0.7,5.7,1.3,11.3,0.2,17c-0.5,3-0.9,6.1-1,9.2c0,0.5-0.1,0.9-0.1,1.2
			c0.4,0,0.8,0,1.2,0C292.4,250.7,300.5,240.9,309.7,232.1z"/>
		<path class="st11" d="M427.4,390.2c0.1-0.9,0-1.5-0.6-1.5c-6.1,0.2-12.2,0.6-18.3,0.9c-0.7,0-1.3,0.1-2.3,0.2
			c6.1-5.1,8.7-9.8,9.7-15.2c-3.4,2.9-6.1,5.1-8.5,7.4c-4.8,4.6-9.6,9-15.4,12.4c-3,1.7-6.1,3.8-9,5.9c-0.5,0.3-0.8,0.6-1.2,0.8
			c0.2,0.3,0.5,0.6,0.7,0.9C400.4,390.8,414,389.8,427.4,390.2z"/>
		<path class="st11" d="M278.9,367.4c-0.9-0.7-2-1.1-2.6-0.8c-6.7,3.2-13.4,6.5-20.1,9.8c-0.7,0.4-1.4,0.8-2.4,1.3
			c0.6-6.9-2.2-11.6-7.9-16.1c-0.2,3.8-0.7,6.8-0.6,9.8c0.2,5.8,0.2,11.4-2.4,16.9c-1.3,2.8-2.3,5.8-3.1,8.9
			c-0.1,0.5-0.3,0.8-0.4,1.2c0.6,0.1,1.3,0.2,1.9,0.3C248.3,381.4,262.9,373.8,278.9,367.4z"/>
		<path class="st11" d="M114.1,198.4c-0.4,0.5-0.5,1,0,1.1c4.7,0.9,9.6,1.8,14.4,2.6c0.5,0.1,1.1,0.2,1.9,0.3
			c-6.5,2.3-10.1,4.8-12.7,8.2c3.6-1.3,6.5-2.2,9.2-3.3c5.3-2.2,10.5-4.2,16.2-5.3c2.9-0.6,6-1.4,9-2.2c0.5-0.1,0.8-0.2,1.2-0.3
			c-0.1-0.2-0.1-0.5-0.2-0.7C135,202.8,124.2,201.1,114.1,198.4z"/>
		<path class="st11" d="M108,271.2c-0.2,0.9-0.1,1.8,0.5,2c5.7,2.4,11.5,4.8,17.3,7.2c0.6,0.3,1.3,0.5,2.2,0.8
			c-6.1,3.1-8.9,7.2-10.2,12.9c3.4-1.8,6.1-3.1,8.6-4.6c4.8-3.1,9.7-6,15.5-7.2c3-0.6,6-1.6,8.9-2.7c0.5-0.2,0.8-0.3,1.2-0.3
			c-0.2-0.4-0.4-0.9-0.6-1.3C133.4,282.6,120.5,277.7,108,271.2z"/>
		<path class="st12" d="M402.9,290.7c-3.9-6.8-10.5-10.6-17-14.6c1.2-0.2,2.4-0.1,3.5,0c3.8,0.4,7.5,1,11.3,1.3
			c0.7,0.1,1.5-0.5,2.2-0.8c-0.1-0.4-0.2-0.7-0.3-1.1c-3.1-0.4-6.2-0.8-9.3-1.2c-2-0.3-4.9,0.1-5.9-1.1c-1-1.2-0.2-3.9-0.2-6.1
			c-2.7,0.3-2.4,2.4-2.7,4.2c-0.1,0.7-0.6,1.2-1,1.8c-0.6-0.4-1.1-0.8-1.7-1.1c-1-0.5-2-1.2-3.1-1.2c-1.4-0.1-2.8,0.7-4.1,0.7
			c-9.8-0.3-19.6-0.9-29.5-1.1c-12.8-0.3-25.6-0.4-38.4-0.6c-5.3-0.1-10.5,0-16.5,0c0.1-0.3,0.2-0.6,0.2-0.9c-0.6,0-1.3,0-1.9,0
			c-0.4,1.2-1.3,1.6-2.8,1.6c-3-0.1-6.1-0.6-9-0.1c-6.3,1.2-12.6,1.8-19,0.5c-1-0.2-2.8,0-2.9,0.5c-0.9,2.8-3.3,2.1-5.1,2.5
			c-5.1,1-10.2,1.8-15.4,2.6c-1.6,0.3-3.2,0.5-4.9,0.8c0,0.9,0,1.6,0,2.5c4.1-0.8,8-1.7,11.9-2.2c7.3-1,14.7-2.9,21.9-2.6
			c10.6,0.5,20.9,3.6,30.6,8.3c5.8,2.8,11,6.5,14.8,11.9c0.8,1.2,2.1,2.1,3.2,3.2c-0.5-1.6-0.7-3.4-1.7-4.8
			c-5.2-7.6-12.9-11.8-21.2-14.9c-4.4-1.7-8.9-2.9-14.3-4.7c2-0.4,3.1-0.9,4.2-0.9c16.9-0.4,33.8-1,50.7-1c8.4,0,16.8,1,25.2,1.6
			c1.8,0.1,3.6,0.5,5.3,0.5c5.4,0.2,11-0.7,16,0.7c5.4,1.5,10.5,4.7,15.3,7.7c5.3,3.3,9.7,7.6,11.4,14.1c0.1,0.6,1.2,0.9,1.8,1.4
			c0.3-0.3,0.5-0.5,0.8-0.8C404.7,295,404.1,292.7,402.9,290.7z"/>
		<path class="st12" d="M235.6,362.5c0,0.1,0,0.2,0,0.2C235.6,362.6,235.6,362.6,235.6,362.5c-0.1-0.9-0.1-1.7-0.2-2.6
			c0.1,0,0.1,0,0.2,0c0-0.8,0-1.6,0-2.5c-0.1,0-0.1,0-0.2,0c-0.2-1-0.3-1.7-0.4-2.3c-1.6-23-3-46.1-4.7-69.1c-0.1-1.9,0.2-3.6,0.8-5
			c0-1.4,0-2.7,0-4.1c-0.4,0.4-0.8,0.9-1.2,1.3c-1.8-26.5-3.5-52.1-5.3-77.7c-0.2,0-0.3,0-0.5,0c-0.4,9.4-0.8,18.7-1.2,29.1
			c-12.2-19-31.2-24.5-51-29.5c2.9-2.4,5.6-4.6,8.2-6.8c5.3-4.6,10-9.7,12.8-16.2c2.3-5.5,2.5-10.9-1.5-15.9
			c-0.5,0.8-0.9,1.8-0.6,2.4c2.7,5.6,1.7,11.1-1.7,15.7c-3.8,5.1-8.3,9.6-12.7,14.2c-4.4,4.7-9.6,7.2-16.2,4.7
			c-0.2-0.1-0.4-0.1-0.6-0.1c-3,0.5-6,1-8.9,1.5c0.1,0.5,0.2,1.1,0.3,1.6c2.4-0.2,4.8-0.4,7.2-0.6c1.3-0.1,2.6-0.1,3.8,0.1
			c4.3,0.7,8.6,1.4,12.8,2.4c9.4,2.2,18.6,5,27.5,10.1c-10.9,10.5-21.9,19.9-38.7,18.6c0.3,0.7,0.9,1.6,1.6,1.8
			c1.8,0.3,3.7,0.4,5.5,0.2c10.5-0.8,18.8-6.2,26.5-12.7c2.5-2.1,4.7-4.4,7.6-7c3.7,3.2,7.5,6,10.8,9.4c5.2,5.3,7.6,11.7,7.1,19.4
			c-1.2,19.6-1.7,39.2-2.6,58.8c-0.3,6.1-0.6,12.3-1,19.2c-14.3-13.2-29.4-23.9-46-32.5c8.3-21.8,6.1-32.1-8.3-38
			c0,0.9,0.2,1.8,0.8,2.3c1.6,1.3,3.4,2.3,5,3.6c8.2,7.1,6.9,20.7-0.2,30.6c-0.3-0.1-0.6-0.1-0.9-0.3c-12.2-5.8-24.8-10.3-38-13.1
			c0,0.8,0,1.5,0,2.3c32.9,7.4,61,23.8,85.7,46.7c0.3,0.3,0.6,0.7,0.8,1.1c0-1.2,0-2.6,0-3.4c0,0.8,0,2.2,0,3.4
			c0.5,0.9,0.8,1.9,0.7,2.8c-0.2,9-0.7,18-1.1,27c-1.5,36.1-3,72.1-4.6,108.2c-0.9,20.1-1.8,40.3-2.6,60.4c-0.2,4.4,0,8.8,0,13.4
			c12.2,0,24.4,0,36.8,0C243.3,477.6,239.4,420.2,235.6,362.5z"/>
		<path d="M437.9,343.3"/>
		<g>
			<path d="M326.2,389.2"/>
			<path class="st12" d="M316.4,405.9c-0.4,0-0.8,0-1.2,0c0,0.3-0.1,0.5-0.1,0.8c-0.1,0.3-0.1,0.6-0.2,1c-0.1,0.4-0.4,0.9-0.9,0.9
				c-0.5,0.1-0.9-0.2-1.1-0.7c-0.2-0.5-0.4-0.9-0.6-1.4c-0.1-0.4-0.2-0.5-0.6-0.5c-2.8,0-5.5,0-8.3,0c-1.2,0-1.4-0.1-1.9-1.3
				c-0.4-0.9-0.9-1.8-1.3-2.7c-0.2-0.5-0.4-1-0.5-1.6c-0.2-0.7,0.1-1,0.7-1.2c0.6-0.1,1.2-0.2,1.8-0.2c2.1,0.1,4.2,0.2,6.2,0.2
				c0.8,0,1.6,0,2.5,0c0.1-0.4,0-0.6-0.3-0.9c-3.6-4.1-6.9-8.4-9.6-13.2c-1.8-3.2-3.2-6.6-3.8-10.3c-0.5-2.8-0.3-5.6,0.1-8.4
				c0.7-5,3.1-9,6.4-12.4c0.4-0.4,0.8-0.9,1.2-1.3c-2.1-3.7-2.9-7.7-3.4-11.9c-0.2-2.1-0.2-4.3,0.1-6.4c0.1-0.7,0.2-1.3,0.3-2
				c0-0.5-0.2-1-0.6-1.3c-1-0.7-1.1-1.6-1-2.7c0-0.4,0.2-0.8,0.3-1.1c0.2-0.5,0.4-0.5,1.3-0.7c-0.5-0.7-1.1-1.4-1.6-2.1
				c-0.7-1.1-1.2-2.3-1.4-3.6c0-0.1,0-0.3,0-0.4c0-0.6,0.2-1.1,0.7-1.4c0.5-0.3,1-0.1,1.5,0.2c1.1,0.9,2.3,1.5,3.6,1.7
				c2.1,0.4,4,0.1,5.7-1.4c3.2-2.8,7-4.3,11.1-4.8c7.5-0.9,14.2,1.2,20.1,6.1c1,0.8,2.1,0.8,3.2,0.5c1.2-0.3,2.3-1,3.4-1.7
				c0.2-0.2,0.4-0.3,0.6-0.5c0.5-0.3,1-0.5,1.5-0.1c0.5,0.3,0.8,0.8,0.7,1.5c-0.1,1.2-0.5,2.3-1.2,3.2c-0.6,0.8-1.2,1.5-1.8,2.3
				c-0.1,0.2-0.2,0.4-0.4,0.6c0.4,0.1,0.6,0.1,0.9,0.2c0.5,0.1,0.8,0.4,0.9,0.8c0.4,1.3,0.1,2.7-0.9,3.5c-0.5,0.4-0.7,0.9-0.5,1.6
				c1.1,5.6,0.1,10.9-1.4,16.3c-0.1,0.3-0.2,0.7-0.4,1c-0.3,0.5-0.1,0.7,0.2,1c1.5,1.5,3.1,2.9,4.5,4.5c2,2.2,3.4,4.7,4,7.7
				c0.5,2.7,0.3,5.5-0.3,8.2c-1.3,5.5-3.5,10.5-6.2,15.3c-2,3.6-4.4,6.9-7,10c-0.1,0.1-0.2,0.3-0.4,0.4c0.6,0.8,0.4,1.7,0.3,2.6
				c0.5,0,0.9,0,1.3,0c1.4,0,2.9,0.1,4.3,0.1c0.3,0,0.7,0,1-0.1c0.6-0.1,1.1,0.1,1.4,0.6c0.4,0.8,0.8,1.6,1.1,2.4
				c0.2,0.6,0.4,1.2,0.5,1.9c0.1,0.9-0.2,1.3-1,1.5c-0.5,0.1-1,0.1-1.5,0.1c-2.8,0-5.7-0.1-8.5-0.1c-0.1,0-0.1,0-0.2,0
				c-0.2,0.4-0.4,0.9-0.6,1.3c-0.2,0.4-0.6,0.7-1.1,0.6c-0.5-0.1-0.7-0.5-0.8-1c-0.1-0.3-0.1-0.6-0.1-1c-0.4,0-0.7,0-1.1,0
				c-0.1,0.2-0.1,0.5-0.2,0.8c-0.2,0.4-0.4,0.8-0.7,1.1c-0.6,0.6-1.3,0.4-1.7-0.4c-0.1-0.2-0.2-0.5-0.2-0.7
				c-0.1-0.3-0.1-0.5-0.1-0.8c-0.4,0-0.9,0-1.3,0c-0.1,0.5-0.2,1-0.3,1.5c-0.1,0.4-0.4,0.8-0.8,0.8c-0.5,0.1-0.8-0.2-1.1-0.6
				c-0.3-0.5-0.4-1-0.6-1.5c-0.1-0.2-0.2-0.3-0.4-0.3c-1.7,0-3.4,0-5.1-0.1c-0.3,0-0.4,0.1-0.5,0.4c-0.2,0.5-0.4,0.9-0.6,1.4
				c-0.2,0.4-0.6,0.6-1.1,0.5c-0.4-0.1-0.6-0.5-0.7-0.9c-0.1-0.4-0.1-0.9-0.2-1.4c-0.2,0-0.5,0-0.7,0c-0.1,0-0.3,0.2-0.3,0.3
				c-0.1,0.4-0.2,0.8-0.4,1.2c-0.1,0.3-0.3,0.5-0.5,0.7c-0.7,0.6-1.4,0.5-1.8-0.4C316.6,407.2,316.6,406.6,316.4,405.9z
				 M306.9,354.3c-2.5,3.6-3.7,7.6-3.8,12c-0.1,4.4,0.7,8.6,1.9,12.8c1.7,5.9,4.2,11.5,6.9,16.9c0.3,0.5,0.5,1.1,1.2,0.9
				c0.1,0,0.1,0,0.2,0c1,0.2,1.7,0.8,2.4,1.6c0.5-1.4,1.5-2,2.8-2c1.1,0,1.9,0.5,2.2,1.7c0.7-0.8,1.3-1.2,2-1.4
				c1.4-0.4,2.4,0.4,2.3,2c0,0.3,0,0.6-0.1,1c0.9,0,1.7,0,2.5,0c0.1,0,0.2,0,0.4,0c0-0.3,0-0.6,0-0.9c0-1.6,0.9-2.3,2.4-1.9
				c0.9,0.2,1.7,0.8,2.2,1.6c0.6-1.3,1.6-2.1,2.8-2c1.1,0,1.8,0.5,2.2,1.5c0.5-0.4,1.1-0.7,1.6-1.1c0.2-0.2,0.5-0.3,0.6-0.5
				c1.6-3.1,3.2-6.2,4.6-9.4c2.6-5.8,4.6-11.8,5.2-18.2c0.3-3.3,0.1-6.6-0.9-9.8c-0.7-2.4-1.9-4.5-3.3-6.3c-0.7,0.6-1.4,1.2-2.1,1.8
				c-2.1,1.5-4.6,2-7.1,2c-2.8,0-5.4-0.7-7.3-3c0,0,0,0,0,0c-0.8,1.2-1.5,2.4-2.3,3.6c-0.4,0.6-0.7,0.6-1.1,0
				c-1-1.6-2.4-2.9-3.1-4.8c-1.8,2.6-4.2,3.9-7.2,4.1C312,356.6,309.3,356.2,306.9,354.3z M315.6,327.2c-3,0-4.9,1.2-6.3,3.2
				c-2.9,4-3.6,8.5-2.2,13.3c0.9,3,2.5,5.4,5,7.2c2.8,1.9,5.6,1.7,8.2-0.6c1.1-1,2-2.3,2.7-3.7c1.2-2.6,1.7-5.4,1.5-8.3
				c-0.1-2.6-0.7-5-2.2-7.1C320.4,328.7,318.1,327.3,315.6,327.2z M343.6,339.9c0-0.5-0.1-1.4-0.2-2.3c-0.6-3.4-2.2-6-5.3-7.5
				c-3-1.5-6.2-0.7-8.2,1.9c-2.6,3.3-3.4,7.2-2.5,11.3c0.7,3.1,2.2,5.8,4.8,7.6c2.1,1.4,4.2,1.7,6.4,0.3c1.1-0.7,1.9-1.6,2.7-2.7
				C343,346,343.6,343.3,343.6,339.9z M336.8,399.4c0,0-0.1,0-0.1,0c0-0.2,0-0.4,0-0.5c0-1-0.6-1.5-1.5-1.6
				c-1.2-0.1-2.2,0.9-2.3,2.2c0,0.4,0,0.8,0,1.1c0.2,1.6,0.5,3.1,0.7,4.7c0.1,0.7,0.2,1.5,0.4,2.2c0.2,0.6,0.6,0.7,1,0.2
				c0.2-0.4,0.4-0.8,0.5-1.3c0.2-0.9,0.3-1.8,0.5-2.7C336.3,402.1,336.5,400.7,336.8,399.4z M316.2,399.9c0,0.5,0.1,1,0.2,1.5
				c0.2,1.2,0.4,2.3,0.6,3.5c0.1,0.8,0.3,1.7,0.4,2.5c0,0.2,0.3,0.5,0.4,0.5c0.2,0,0.5-0.2,0.6-0.4c0.2-0.5,0.4-1,0.5-1.5
				c0.3-1.6,0.6-3.2,0.9-4.7c0.1-0.8,0.2-1.6,0.2-2.4c0-1-0.6-1.6-1.5-1.6C317,397.3,316.1,398.3,316.2,399.9z M328.3,399.2
				c0.1,0.5,0.1,0.9,0.2,1.4c0.3,1.5,0.6,3.1,1,4.6c0.2,0.8,0.4,1.5,0.7,2.2c0.1,0.2,0.4,0.3,0.6,0.5c0.1-0.2,0.3-0.4,0.4-0.6
				c0.1-0.6,0.2-1.2,0.3-1.8c0.2-1.6,0.5-3.1,0.7-4.7c0.2-1.5-0.4-2.5-1.7-3C329.2,397.4,328.3,397.5,328.3,399.2z M315.5,400.5
				c-0.1-0.5-0.2-1.1-0.4-1.5c-0.5-0.9-1.4-1.3-2.4-1.3c-0.6,0-1,0.3-1,1c0,0.5,0,1.1,0.1,1.6c0.2,1.3,0.5,2.7,0.8,4
				c0.2,1,0.4,1.9,0.7,2.9c0.1,0.3,0.5,0.5,0.7,0.8c0.2-0.3,0.4-0.6,0.5-0.9c0.2-0.8,0.2-1.6,0.4-2.4
				C315,403.3,315.2,401.9,315.5,400.5z M320.8,400.7C320.8,400.7,320.8,400.7,320.8,400.7c0,0.2,0,0.4,0,0.5c0.1,1.7,0.2,3.4,0.4,5
				c0,0.3,0.1,0.6,0.1,0.9c0,0.2,0.2,0.4,0.3,0.4c0.1,0,0.3-0.1,0.4-0.3c0.2-0.4,0.5-0.9,0.6-1.4c0.5-1.6,0.9-3.2,1.3-4.8
				c0.2-0.9,0.3-1.8,0.4-2.7c0-0.6-0.2-0.9-0.7-1c-1.1-0.2-2.5,0.8-2.7,1.9C320.8,399.9,320.8,400.3,320.8,400.7z M341,398.9
				C341,398.9,341,398.9,341,398.9c-0.1-0.2,0-0.5-0.1-0.7c0-0.4-0.3-0.6-0.6-0.7c-1-0.3-2.5,0.7-2.7,1.8c-0.1,0.5-0.1,1-0.1,1.6
				c0.1,2,0.3,3.9,0.4,5.9c0,0.1,0,0.3,0.1,0.4c0.1,0.2,0.2,0.4,0.3,0.4c0.1,0,0.3-0.1,0.4-0.3c0.2-0.4,0.4-0.8,0.6-1.3
				c0.5-1.8,1-3.6,1.5-5.4C340.9,400.1,340.9,399.5,341,398.9z M328.6,350.8c-0.2,0-0.4,0-0.6,0c-1.7,0-3.5,0-5.2,0
				c-0.6,0-0.6,0.1-0.4,0.6c0.3,0.8,0.6,1.6,1.1,2.3c0.7,1,1.4,2,2.2,3C327,355,328.1,353.1,328.6,350.8z M308.8,323.2
				c-0.2,0-0.3,0-0.4,0c-0.1,0-0.2,0-0.2,0c-2.5,0.3-4.7-0.2-6.8-1.8c-0.1-0.1-0.4-0.2-0.5-0.1c-0.1,0.1-0.2,0.3-0.2,0.5
				c-0.2,2.1,2.1,4.7,4.5,3.8C306.6,325.2,307.7,324.3,308.8,323.2z M342.5,323.6c1.1,0.8,2.2,1.5,3.6,1.5c0.7,0,1.3-0.2,1.8-0.6
				c0.8-0.7,1.5-1.6,1.3-2.9c0-0.2-0.2-0.5-0.3-0.6c-0.1-0.1-0.4,0.1-0.5,0.3c-1.2,1.1-2.5,1.8-4.1,2
				C343.7,323.5,343.1,323.5,342.5,323.6z"/>
			<path class="st13" d="M306.9,354.3c2.4,1.9,5.1,2.3,7.9,2.1c2.9-0.2,5.3-1.5,7.2-4.1c0.7,1.9,2.1,3.2,3.1,4.8
				c0.4,0.6,0.8,0.6,1.1,0c0.8-1.2,1.5-2.4,2.3-3.6c-0.1,0,0,0,0,0c2,2.3,4.5,3.1,7.3,3c2.5,0,5-0.5,7.1-2c0.7-0.5,1.4-1.2,2.1-1.8
				c1.5,1.8,2.6,4,3.3,6.3c1,3.2,1.2,6.5,0.9,9.8c-0.5,6.4-2.6,12.4-5.2,18.2c-1.4,3.2-3.1,6.3-4.6,9.4c-0.1,0.2-0.4,0.4-0.6,0.5
				c-0.5,0.4-1.1,0.7-1.6,1.1c-0.3-1-1.1-1.5-2.2-1.5c-1.2,0-2.2,0.7-2.8,2c-0.6-0.8-1.3-1.3-2.2-1.6c-1.5-0.4-2.4,0.3-2.4,1.9
				c0,0.3,0,0.6,0,0.9c-0.1,0-0.2,0-0.4,0c-0.8,0-1.6,0-2.5,0c0-0.4,0-0.7,0.1-1c0.1-1.6-0.8-2.3-2.3-2c-0.8,0.2-1.3,0.6-2,1.4
				c-0.3-1.2-1.1-1.7-2.2-1.7c-1.3,0-2.3,0.7-2.8,2c-0.6-0.8-1.4-1.4-2.4-1.6c-0.1,0-0.1-0.1-0.2,0c-0.7,0.2-0.9-0.4-1.2-0.9
				c-2.7-5.5-5.2-11-6.9-16.9c-1.2-4.2-2-8.4-1.9-12.8C303.2,362,304.5,358,306.9,354.3z"/>
			<path class="st14" d="M315.6,327.2c2.5,0.1,4.9,1.5,6.7,4.1c1.5,2.1,2.1,4.5,2.2,7.1c0.1,2.9-0.3,5.7-1.5,8.3
				c-0.7,1.4-1.5,2.6-2.7,3.7c-2.6,2.3-5.4,2.5-8.2,0.6c-2.5-1.7-4.1-4.2-5-7.2c-1.4-4.8-0.7-9.3,2.2-13.3
				C310.7,328.4,312.6,327.2,315.6,327.2z M308.2,339.8c0,2.9,0.9,5.6,2.4,8c0.7,1.2,1.7,2,2.9,2.6c0.8,0.3,1.5,0.7,2.4,0.6
				c1.8-0.2,3.1-1.1,4-2.7c2-3.5,2.7-7.2,2.1-11.2c-0.4-2.6-1.6-4.4-3.9-5.4c-1.1-0.5-2.3-0.6-3.6-0.5c-2.1,0.3-3.9,1.3-5,3.2
				C308.7,336.1,308.2,337.9,308.2,339.8z"/>
			<path class="st14" d="M343.6,339.9c0,3.4-0.7,6.1-2.3,8.6c-0.7,1.1-1.6,2-2.7,2.7c-2.2,1.4-4.4,1.2-6.4-0.3
				c-2.6-1.8-4.1-4.4-4.8-7.6c-0.9-4.2-0.1-8,2.5-11.3c2-2.7,5.2-3.4,8.2-1.9c3,1.5,4.7,4.1,5.3,7.5
				C343.5,338.5,343.6,339.4,343.6,339.9z M328.8,340.7c0.1,3,0.8,5.1,1.9,7.1c0.8,1.3,1.8,2.4,3.2,2.9c0.6,0.2,1.3,0.4,2,0.4
				c1.7-0.1,2.9-1.2,3.7-2.7c1.5-2.8,2.2-5.9,1.9-9.1c-0.1-1.4-0.4-2.7-1.3-3.9c-2-2.7-6.2-3.2-8.9-1
				C329.4,336.2,328.8,338.6,328.8,340.7z"/>
			<path class="st15" d="M336.8,399.4c-0.3,1.4-0.5,2.8-0.8,4.2c-0.2,0.9-0.3,1.8-0.5,2.7c-0.1,0.5-0.3,0.9-0.5,1.3
				c-0.3,0.5-0.8,0.5-1-0.2c-0.2-0.7-0.3-1.4-0.4-2.2c-0.3-1.6-0.5-3.1-0.7-4.7c-0.1-0.4-0.1-0.8,0-1.1c0.1-1.2,1.1-2.2,2.3-2.2
				c0.9,0,1.5,0.6,1.5,1.6c0,0.2,0,0.4,0,0.5C336.7,399.3,336.8,399.3,336.8,399.4z"/>
			<path class="st15" d="M316.2,399.9c0-1.6,0.9-2.6,2.3-2.6c1,0,1.5,0.6,1.5,1.6c0,0.8-0.1,1.6-0.2,2.4c-0.3,1.6-0.6,3.2-0.9,4.7
				c-0.1,0.5-0.3,1-0.5,1.5c-0.1,0.2-0.4,0.4-0.6,0.4c-0.1,0-0.4-0.3-0.4-0.5c-0.2-0.8-0.3-1.7-0.4-2.5c-0.2-1.2-0.4-2.3-0.6-3.5
				C316.2,400.9,316.2,400.4,316.2,399.9z"/>
			<path class="st15" d="M328.3,399.2c0-1.7,0.8-1.9,2-1.4c1.3,0.5,1.9,1.5,1.7,3c-0.2,1.6-0.5,3.1-0.7,4.7
				c-0.1,0.6-0.1,1.2-0.3,1.8c0,0.2-0.3,0.4-0.4,0.6c-0.2-0.2-0.5-0.3-0.6-0.5c-0.3-0.7-0.5-1.5-0.7-2.2c-0.3-1.5-0.7-3.1-1-4.6
				C328.4,400.1,328.4,399.7,328.3,399.2z"/>
			<path class="st16" d="M315.5,400.5c-0.2,1.4-0.5,2.8-0.7,4.1c-0.1,0.8-0.2,1.6-0.4,2.4c-0.1,0.3-0.3,0.6-0.5,0.9
				c-0.2-0.3-0.6-0.5-0.7-0.8c-0.3-0.9-0.5-1.9-0.7-2.9c-0.3-1.3-0.6-2.7-0.8-4c-0.1-0.5-0.1-1.1-0.1-1.6c0-0.7,0.4-1,1-1
				c1,0,1.8,0.5,2.4,1.3C315.3,399.4,315.3,400,315.5,400.5z"/>
			<path class="st15" d="M320.8,400.7c0-0.4,0.1-0.9,0.1-1.3c0.2-1.1,1.6-2.2,2.7-1.9c0.5,0.1,0.8,0.4,0.7,1
				c-0.1,0.9-0.2,1.8-0.4,2.7c-0.4,1.6-0.8,3.2-1.3,4.8c-0.1,0.5-0.4,0.9-0.6,1.4c-0.1,0.1-0.3,0.3-0.4,0.3c-0.1,0-0.2-0.2-0.3-0.4
				c-0.1-0.3-0.1-0.6-0.1-0.9c-0.1-1.7-0.2-3.4-0.4-5C320.8,401.1,320.8,400.9,320.8,400.7C320.8,400.7,320.8,400.7,320.8,400.7z"/>
			<path class="st15" d="M341,398.9c-0.1,0.6-0.1,1.2-0.3,1.7c-0.5,1.8-0.9,3.6-1.5,5.4c-0.1,0.4-0.4,0.9-0.6,1.3
				c-0.1,0.1-0.3,0.3-0.4,0.3c-0.1,0-0.2-0.2-0.3-0.4c-0.1-0.1-0.1-0.3-0.1-0.4c-0.1-2-0.3-3.9-0.4-5.9c0-0.5,0-1,0.1-1.6
				c0.2-1.1,1.7-2.1,2.7-1.8c0.3,0.1,0.6,0.3,0.6,0.7C341,398.4,341,398.7,341,398.9C341,398.9,341,398.9,341,398.9z"/>
			<path class="st17" d="M328.6,350.8c-0.5,2.2-1.6,4.2-2.9,5.9c-0.7-1-1.5-2-2.2-3c-0.5-0.7-0.8-1.5-1.1-2.3
				c-0.2-0.5-0.1-0.6,0.4-0.6c1.7,0,3.5,0,5.2,0C328.2,350.8,328.4,350.8,328.6,350.8z"/>
			<path class="st14" d="M308.8,323.2c-1.1,1.1-2.2,2-3.6,2.5c-2.5,0.8-4.8-1.8-4.5-3.8c0-0.2,0.1-0.5,0.2-0.5
				c0.1-0.1,0.4,0,0.5,0.1c2,1.5,4.3,2,6.8,1.8c0.1,0,0.2,0,0.2,0C308.5,323.2,308.6,323.2,308.8,323.2z"/>
			<path class="st14" d="M342.5,323.6c0.6-0.1,1.2-0.1,1.7-0.2c1.6-0.2,2.9-0.9,4.1-2c0.1-0.1,0.4-0.3,0.5-0.3
				c0.2,0.1,0.3,0.4,0.3,0.6c0.2,1.2-0.4,2.1-1.3,2.9c-0.5,0.4-1.1,0.6-1.8,0.6C344.8,325.1,343.6,324.4,342.5,323.6z"/>
			<path d="M308.2,339.8c0-1.9,0.4-3.7,1.4-5.4c1.1-2,2.9-3,5-3.2c1.2-0.1,2.4,0,3.6,0.5c2.3,1,3.5,2.9,3.9,5.4
				c0.6,4-0.2,7.7-2.1,11.2c-0.9,1.6-2.2,2.5-4,2.7c-0.9,0.1-1.6-0.2-2.4-0.6c-1.2-0.5-2.2-1.4-2.9-2.6
				C309.1,345.4,308.3,342.8,308.2,339.8z M312.1,348.6c-0.3-1-0.6-2-0.8-2.9c-0.4-2.7,0.9-5.8,4.5-5.5c1.8,0.1,3.1,1.3,3.5,3.2
				c0.2,1.1,0.2,2.2,0,3.2c-0.2,0.9-0.5,1.8-0.8,2.8c0.4-0.6,0.8-1,1.1-1.5c1.8-3.2,2.5-6.6,2-10.3c-0.2-1.6-0.7-3-1.9-4.1
				c-1.1-0.9-2.3-1.4-3.7-1.5c-2.3-0.1-4.3,0.6-5.6,2.7c-1,1.5-1.4,3.1-1.4,4.8c-0.1,2.9,0.8,5.6,2.3,8
				C311.4,347.9,311.8,348.2,312.1,348.6z M316.5,342.7c0-1-0.5-1.7-1.5-1.7c-0.9,0-1.5,0.7-1.6,1.7c0,1,0.6,1.8,1.5,1.9
				C315.8,344.6,316.5,343.8,316.5,342.7z"/>
			<path d="M328.8,340.7c0-2.1,0.6-4.5,2.7-6.3c2.6-2.2,6.9-1.7,8.9,1c0.8,1.1,1.1,2.5,1.3,3.9c0.3,3.2-0.4,6.3-1.9,9.1
				c-0.8,1.5-2,2.6-3.7,2.7c-0.7,0-1.4-0.1-2-0.4c-1.4-0.5-2.5-1.6-3.2-2.9C329.6,345.8,328.9,343.7,328.8,340.7z M338.1,349.5
				c0.3-0.4,0.6-0.7,0.8-1.2c1.8-3,2.4-6.3,1.9-9.8c-0.3-2.3-1.4-4-3.6-4.6c-0.8-0.2-1.6-0.3-2.4-0.3c-1.7,0.1-3.1,0.9-4.1,2.4
				c-1,1.5-1.4,3.2-1.3,5c0.1,2.5,0.8,4.7,2.1,6.8c0.2,0.4,0.5,0.7,0.8,1c-0.2-0.9-0.6-1.7-0.7-2.6c-0.4-2.5,0.9-5.4,4.2-5.1
				c1.6,0.1,2.7,1.2,3,2.8C339.2,345.9,338.9,347.7,338.1,349.5z M336.3,343.5c0-0.9-0.5-1.5-1.3-1.5c-0.8,0-1.4,0.7-1.4,1.6
				c0,0.9,0.6,1.7,1.4,1.6C335.7,345.3,336.3,344.5,336.3,343.5z"/>
			<path class="st18" d="M316.5,342.7c0,1-0.7,1.9-1.5,1.8c-0.8,0-1.5-0.8-1.5-1.9c0-1,0.7-1.7,1.6-1.7
				C315.9,341,316.5,341.7,316.5,342.7z"/>
			<path class="st18" d="M336.3,343.5c0,0.9-0.6,1.7-1.4,1.7c-0.8,0-1.4-0.7-1.4-1.6c0-0.9,0.6-1.6,1.4-1.6
				C335.8,342,336.3,342.6,336.3,343.5z"/>
			<path class="st19" d="M315.2,364.5c-1.1,1.5-3.3,3.1-5.5,0"/>
			<path class="st19" d="M320,371.8c-1,1.3-2.9,2.6-4.7,0"/>
			<path class="st19" d="M323.1,377.9c-1,1.3-2.9,2.6-4.7,0"/>
			<path class="st19" d="M330.1,378.7c-1,1.3-2.9,2.6-4.7,0"/>
			<path class="st19" d="M336.6,378.7c-1,1.3-2.9,2.6-4.7,0"/>
			<path class="st19" d="M329.4,371.8c-1,1.3-2.9,2.6-4.7,0"/>
			<path class="st19" d="M338.9,371.8c-1,1.3-2.9,2.6-4.7,0"/>
			<path class="st19" d="M329.2,364.5c-1.1,1.5-3.3,3.1-5.5,0"/>
			<path class="st19" d="M343.1,364.5c-1.1,1.5-3.3,3.1-5.5,0"/>
		</g>
		<path class="st12" d="M348.2,399.9l4.8,0l2.4-2.4c0,0,0.6-1.4,2.8,0c2.1,1.4,2.1,1.4,2.1,1.4l11.1,1c0,0,11.3-0.3,11.8-1.5
			c0.5-1.2,14.9,3,14.9,3l2.1,1.4H378l13.2,7.2l12.3,6.1c0,0,10.2,7.3,4.7,12.7l-1.2-3.5l-2.6-5c0,0-3.9-3.2-5.3-3.5
			c-1.4-0.3-12.3-6.5-12.3-6.5l-7.9-4.1c0,0-7-0.5-11.5-2c-4.4-1.6-17.4,2.1-17.4,2.1"/>
		<path class="st12" d="M300.5,399.1c0,0-31.5,0.7-34.6,0.7s-9.7,0.5-18.7,0s-9.1-2.2-9.1-2.2l0.7,9.9c0,0,20.5,1,22.1,0
			c1.6-1,42.6-1.7,42.6-1.7"/>
		<ellipse class="st20" cx="328.8" cy="537.4" rx="20.6" ry="1.2"/>
	</g>
</g>
</svg>
